<svg xmlns="http://www.w3.org/2000/svg" viewBox="0 0 640 260" width="640" height="260" font-family="Inter, Segoe UI, Arial, sans-serif" font-size="11" role="img" aria-label="QR-29 frame_to_dispatch_ms"><rect width="640" height="260" rx="10" fill="#ffffff" stroke="#e5e7eb"/><line x1="66" x2="622" y1="214.0" y2="214.0" stroke="#e5e7eb"/><text x="60" y="218.0" text-anchor="end" fill="#1f2937">0</text><line x1="66" x2="622" y1="165.0" y2="165.0" stroke="#e5e7eb"/><text x="60" y="169.0" text-anchor="end" fill="#1f2937">85.8</text><line x1="66" x2="622" y1="116.0" y2="116.0" stroke="#e5e7eb"/><text x="60" y="120.0" text-anchor="end" fill="#1f2937">172</text><line x1="66" x2="622" y1="67.0" y2="67.0" stroke="#e5e7eb"/><text x="60" y="71.0" text-anchor="end" fill="#1f2937">257</text><line x1="66" x2="622" y1="18.0" y2="18.0" stroke="#e5e7eb"/><text x="60" y="22.0" text-anchor="end" fill="#1f2937">343</text><text x="14" y="116" fill="#1f2937" transform="rotate(-90 14 116)" text-anchor="middle">samples</text><rect x="67.0" y="210.0" width="21.2" height="4.0" fill="#b91c1c" opacity="0.85"/><rect x="90.2" y="211.7" width="21.2" height="2.3" fill="#b91c1c" opacity="0.85"/><rect x="113.3" y="211.1" width="21.2" height="2.9" fill="#b91c1c" opacity="0.85"/><rect x="136.5" y="211.7" width="21.2" height="2.3" fill="#b91c1c" opacity="0.85"/><rect x="159.7" y="191.7" width="21.2" height="22.3" fill="#b91c1c" opacity="0.85"/><rect x="182.8" y="47.1" width="21.2" height="166.9" fill="#b91c1c" opacity="0.85"/><rect x="206.0" y="18.0" width="21.2" height="196.0" fill="#b91c1c" opacity="0.85"/><rect x="229.2" y="146.0" width="21.2" height="68.0" fill="#b91c1c" opacity="0.85"/><rect x="252.3" y="194.6" width="21.2" height="19.4" fill="#b91c1c" opacity="0.85"/><rect x="275.5" y="212.3" width="21.2" height="1.7" fill="#b91c1c" opacity="0.85"/><rect x="298.7" y="212.9" width="21.2" height="1.1" fill="#b91c1c" opacity="0.85"/><rect x="345.0" y="212.3" width="21.2" height="1.7" fill="#b91c1c" opacity="0.85"/><rect x="484.0" y="213.4" width="21.2" height="0.6" fill="#b91c1c" opacity="0.85"/><rect x="599.8" y="212.9" width="21.2" height="1.1" fill="#b91c1c" opacity="0.85"/><text x="66.0" y="230" text-anchor="middle" fill="#1f2937">13.3</text><text x="205.0" y="230" text-anchor="middle" fill="#1f2937">15.3</text><text x="344.0" y="230" text-anchor="middle" fill="#1f2937">17.2</text><text x="483.0" y="230" text-anchor="middle" fill="#1f2937">19.2</text><text x="622.0" y="230" text-anchor="middle" fill="#1f2937">21.1</text><text x="344" y="250" text-anchor="middle" fill="#1f2937">ms</text></svg>