<svg xmlns="http://www.w3.org/2000/svg" viewBox="0 0 640 260" width="640" height="260" font-family="Inter, Segoe UI, Arial, sans-serif" font-size="11" role="img" aria-label="QR-25 recognition_ms"><rect width="640" height="260" rx="10" fill="#ffffff" stroke="#e5e7eb"/><line x1="66" x2="622" y1="214.0" y2="214.0" stroke="#e5e7eb"/><text x="60" y="218.0" text-anchor="end" fill="#1f2937">0</text><line x1="66" x2="622" y1="165.0" y2="165.0" stroke="#e5e7eb"/><text x="60" y="169.0" text-anchor="end" fill="#1f2937">702</text><line x1="66" x2="622" y1="116.0" y2="116.0" stroke="#e5e7eb"/><text x="60" y="120.0" text-anchor="end" fill="#1f2937">1,405</text><line x1="66" x2="622" y1="67.0" y2="67.0" stroke="#e5e7eb"/><text x="60" y="71.0" text-anchor="end" fill="#1f2937">2,108</text><line x1="66" x2="622" y1="18.0" y2="18.0" stroke="#e5e7eb"/><text x="60" y="22.0" text-anchor="end" fill="#1f2937">2,810</text><text x="14" y="116" fill="#1f2937" transform="rotate(-90 14 116)" text-anchor="middle">samples</text><rect x="67.0" y="18.0" width="21.2" height="196.0" fill="#b91c1c" opacity="0.85"/><rect x="90.2" y="209.7" width="21.2" height="4.3" fill="#b91c1c" opacity="0.85"/><rect x="113.3" y="212.9" width="21.2" height="1.1" fill="#b91c1c" opacity="0.85"/><rect x="136.5" y="213.0" width="21.2" height="1.0" fill="#b91c1c" opacity="0.85"/><rect x="159.7" y="213.7" width="21.2" height="0.3" fill="#b91c1c" opacity="0.85"/><rect x="182.8" y="213.7" width="21.2" height="0.3" fill="#b91c1c" opacity="0.85"/><rect x="229.2" y="213.9" width="21.2" height="0.1" fill="#b91c1c" opacity="0.85"/><rect x="484.0" y="213.9" width="21.2" height="0.1" fill="#b91c1c" opacity="0.85"/><rect x="553.5" y="213.9" width="21.2" height="0.1" fill="#b91c1c" opacity="0.85"/><rect x="599.8" y="213.9" width="21.2" height="0.1" fill="#b91c1c" opacity="0.85"/><text x="66.0" y="230" text-anchor="middle" fill="#1f2937">0.0707</text><text x="205.0" y="230" text-anchor="middle" fill="#1f2937">0.323</text><text x="344.0" y="230" text-anchor="middle" fill="#1f2937">0.575</text><text x="483.0" y="230" text-anchor="middle" fill="#1f2937">0.827</text><text x="622.0" y="230" text-anchor="middle" fill="#1f2937">1.08</text><text x="344" y="250" text-anchor="middle" fill="#1f2937">ms</text></svg>