<svg xmlns="http://www.w3.org/2000/svg" viewBox="0 0 640 260" width="640" height="260" font-family="Inter, Segoe UI, Arial, sans-serif" font-size="11" role="img" aria-label="QR-33 processed_fps"><rect width="640" height="260" rx="10" fill="#ffffff" stroke="#e5e7eb"/><line x1="66" x2="622" y1="214.0" y2="214.0" stroke="#e5e7eb"/><text x="60" y="218.0" text-anchor="end" fill="#1f2937">0</text><line x1="66" x2="622" y1="165.0" y2="165.0" stroke="#e5e7eb"/><text x="60" y="169.0" text-anchor="end" fill="#1f2937">8.25</text><line x1="66" x2="622" y1="116.0" y2="116.0" stroke="#e5e7eb"/><text x="60" y="120.0" text-anchor="end" fill="#1f2937">16.5</text><line x1="66" x2="622" y1="67.0" y2="67.0" stroke="#e5e7eb"/><text x="60" y="71.0" text-anchor="end" fill="#1f2937">24.8</text><line x1="66" x2="622" y1="18.0" y2="18.0" stroke="#e5e7eb"/><text x="60" y="22.0" text-anchor="end" fill="#1f2937">33.0</text><text x="14" y="116" fill="#1f2937" transform="rotate(-90 14 116)" text-anchor="middle">fps</text><polyline points="66.0,35.8 85.2,35.8 104.3,35.8 123.5,35.8 142.7,35.8 161.9,35.8 181.0,35.8 200.2,35.8 219.4,35.8 238.6,35.8 257.7,35.8 276.9,35.8 296.1,35.8 315.2,35.8 334.4,35.8 353.6,35.8 372.8,35.8 391.9,35.8 411.1,35.8 430.3,35.8 449.4,35.8 468.6,35.8 487.8,35.8 507.0,35.8 526.1,35.8 545.3,35.8 564.5,35.8 583.7,35.8 602.8,35.8 622.0,35.8" fill="none" stroke="#b91c1c" stroke-width="2"/><text x="66" y="230" fill="#1f2937">start</text><text x="622" y="230" text-anchor="end" fill="#1f2937">end (30 samples)</text><line x1="66" x2="622" y1="35.8" y2="35.8" stroke="#1d4ed8" stroke-width="2" stroke-dasharray="6 4"/><text x="618" y="30.8" text-anchor="end" fill="#1d4ed8">target 30</text></svg>