<svg xmlns="http://www.w3.org/2000/svg" viewBox="0 0 900 118" width="900" height="118">

<defs>
  <linearGradient id="glass" x1="0" y1="0" x2="1" y2="1">
    <stop offset="0" stop-color="#FFFFFF" stop-opacity="0.07"/>
    <stop offset="1" stop-color="#FFFFFF" stop-opacity="0.015"/>
  </linearGradient>
  <linearGradient id="redbar" x1="0" y1="0" x2="0" y2="1">
    <stop offset="0" stop-color="#BA181B"/>
    <stop offset="1" stop-color="#E5383B"/>
  </linearGradient>
  <linearGradient id="fade" x1="0" y1="0" x2="1" y2="0">
    <stop offset="0" stop-color="#E5383B" stop-opacity="0"/>
    <stop offset="0.5" stop-color="#E5383B" stop-opacity="0.55"/>
    <stop offset="1" stop-color="#E5383B" stop-opacity="0"/>
  </linearGradient>
  <radialGradient id="glow" cx="0.5" cy="0" r="1">
    <stop offset="0" stop-color="#E5383B" stop-opacity="0.16"/>
    <stop offset="0.7" stop-color="#E5383B" stop-opacity="0"/>
  </radialGradient>
</defs>

<rect width="900" height="118" rx="14" fill="#0B090A"/>
<rect width="900" height="118" rx="14" fill="url(#glow)"/>
<rect x="0.5" y="0.5" width="899" height="117" rx="13.5" fill="none" stroke="#FFFFFF" stroke-opacity="0.13"/>
<rect x="18" y="62" width="3.5" height="34" rx="1.75" fill="url(#redbar)"/>
<path transform="translate(34.00,40) scale(0.012500,-0.012500)" d="M300 -10Q231 -10 180.5 17.0Q130 44 102.0 92.5Q74 141 74 206V524Q74 590 101.5 638.0Q129 686 180.0 713.0Q231 740 300 740Q370 740 420.5 713.0Q471 686 498.5 638.0Q526 590 526 524V206Q526 141 498.0 92.5Q470 44 419.5 17.0Q369 -10 300 -10ZM300 83Q356 83 389.5 117.0Q423 151 423 206V524Q423 579 389.5 613.0Q356 647 300 647Q244 647 210.5 613.0Q177 579 177 524V206Q177 151 210.5 117.0Q244 83 300 83ZM300 303Q272 303 254.5 321.0Q237 339 237 368Q237 396 254.5 413.5Q272 431 300 431Q328 431 345.5 413.5Q363 396 363 368Q363 339 345.5 321.0Q328 303 300 303Z" fill="#E5383B"/><path transform="translate(45.00,40) scale(0.012500,-0.012500)" d="M87 0V96H281V636L86 491V608L253 730H389V96H546V0Z" fill="#E5383B"/><path transform="translate(67.00,40) scale(0.012500,-0.012500)" d="M300 258Q260 258 236.0 281.5Q212 305 212 345Q212 386 236.0 410.5Q260 435 300 435Q341 435 364.5 410.5Q388 386 388 345Q388 305 364.5 281.5Q341 258 300 258Z" fill="#E5383B"/><path transform="translate(89.00,40) scale(0.012500,-0.012500)" d="M83 0V730H287Q359 730 412.0 702.5Q465 675 494.5 625.0Q524 575 524 507V224Q524 157 494.5 106.0Q465 55 412.0 27.5Q359 0 287 0ZM191 98H287Q347 98 381.5 131.5Q416 165 416 224V507Q416 565 381.5 598.5Q347 632 287 632H191Z" fill="#E5383B"/><path transform="translate(100.00,40) scale(0.012500,-0.012500)" d="M94 0V730H523V634H200V427H488V332H200V96H523V0Z" fill="#E5383B"/><path transform="translate(111.00,40) scale(0.012500,-0.012500)" d="M109 0V730H217V99H536V0Z" fill="#E5383B"/><path transform="translate(122.00,40) scale(0.012500,-0.012500)" d="M98 0V96H245V634H98V730H502V634H355V96H502V0Z" fill="#E5383B"/><path transform="translate(133.00,40) scale(0.012500,-0.012500)" d="M228 0 43 730H154L271 244Q282 201 290.5 158.5Q299 116 303 92Q307 116 314.5 158.5Q322 201 333 245L449 730H557L371 0Z" fill="#E5383B"/><path transform="translate(144.00,40) scale(0.012500,-0.012500)" d="M94 0V730H523V634H200V427H488V332H200V96H523V0Z" fill="#E5383B"/><path transform="translate(155.00,40) scale(0.012500,-0.012500)" d="M84 0V730H313Q382 730 433.0 703.5Q484 677 512.5 629.0Q541 581 541 516Q541 443 503.5 389.5Q466 336 402 314L551 0H428L295 300H192V0ZM192 395H313Q367 395 399.0 427.5Q431 460 431 514Q431 570 399.0 602.0Q367 634 313 634H192Z" fill="#E5383B"/><path transform="translate(166.00,40) scale(0.012500,-0.012500)" d="M43 0 229 730H371L557 0H448L404 185H197L153 0ZM217 274H383L333 485Q320 541 311.5 582.5Q303 624 300 639Q297 624 289.0 582.5Q281 541 267 486Z" fill="#E5383B"/><path transform="translate(177.00,40) scale(0.012500,-0.012500)" d="M85 0V730H300Q404 730 463.0 680.0Q522 630 522 542Q522 492 500.5 455.5Q479 419 441.0 399.0Q403 379 352 379V389Q407 390 449.0 368.5Q491 347 515.0 305.0Q539 263 539 205Q539 143 511.5 96.5Q484 50 433.5 25.0Q383 0 314 0ZM190 93H305Q363 93 397.0 124.0Q431 155 431 210Q431 266 397.0 300.0Q363 334 305 334H190ZM190 424H299Q353 424 384.0 453.0Q415 482 415 531Q415 580 384.0 608.5Q353 637 300 637H190Z" fill="#E5383B"/><path transform="translate(188.00,40) scale(0.012500,-0.012500)" d="M109 0V730H217V99H536V0Z" fill="#E5383B"/><path transform="translate(199.00,40) scale(0.012500,-0.012500)" d="M94 0V730H523V634H200V427H488V332H200V96H523V0Z" fill="#E5383B"/><path transform="translate(210.00,40) scale(0.012500,-0.012500)" d="M303 -10Q229 -10 176.0 14.5Q123 39 94.0 84.5Q65 130 65 193H172Q172 143 207.0 114.5Q242 86 304 86Q362 86 395.0 114.0Q428 142 428 191Q428 232 405.5 262.0Q383 292 341 303L249 330Q169 353 125.5 408.5Q82 464 82 541Q82 601 109.0 646.0Q136 691 186.0 716.0Q236 741 304 741Q404 741 464.5 687.0Q525 633 526 542H418Q418 590 387.5 617.5Q357 645 302 645Q249 645 219.0 619.5Q189 594 189 548Q189 507 211.5 477.0Q234 447 276 435L369 407Q449 385 492.0 329.0Q535 273 535 195Q535 134 506.0 87.5Q477 41 425.0 15.5Q373 -10 303 -10Z" fill="#E5383B"/>
<path transform="translate(34.00,88) scale(0.034000,-0.034000)" d="M25 700H162L247 206H251L390 700H492L628 206H632L717 700H854L709 0H582L443 492H439L297 0H170Z" fill="#F5F3F4"/><path transform="translate(64.06,88) scale(0.034000,-0.034000)" d="M50 102V394L153 498H434L538 394V205H182V141L214 108H377L407 139V165H537V100L438 0H151ZM406 297V355L372 390H216L182 355V297Z" fill="#F5F3F4"/><path transform="translate(84.05,88) scale(0.034000,-0.034000)" d="M60 108V714H192V429L265 498H447L550 394V104L447 0H167ZM380 112 418 151V347L380 386H282L192 296V151L230 112Z" fill="#F5F3F4"/><path transform="translate(104.62,88) scale(0.034000,-0.034000)" d="M35 98V159H165V131L187 108H349L371 131V174L348 198H133L39 293V402L134 498H394L491 400V339H361V367L339 390H191L169 367V328L192 304H407L501 209V96L406 0H132Z" fill="#F5F3F4"/><path transform="translate(123.01,88) scale(0.034000,-0.034000)" d="M55 602V666L101 712H171L217 666V602L171 556H101ZM70 498H202V0H70Z" fill="#F5F3F4"/><path transform="translate(132.43,88) scale(0.034000,-0.034000)" d="M105 102V387H15V498H107V660H237V498H389V386H237V145L271 112H389V0H208Z" fill="#F5F3F4"/><path transform="translate(146.68,88) scale(0.034000,-0.034000)" d="M50 102V394L153 498H434L538 394V205H182V141L214 108H377L407 139V165H537V100L438 0H151ZM406 297V355L372 390H216L182 355V297Z" fill="#F5F3F4"/><path transform="translate(176.09,88) scale(0.034000,-0.034000)" d="M50 107V297L112 360L79 394V592L186 700H454L559 594V520H427V552L396 584H242L211 552V436L244 402H458V468H586V402H652V288H588V108L481 0H157ZM423 116 456 150V288H215L182 255V149L215 116Z" fill="#F5F3F4"/><path transform="translate(208.18,88) scale(0.034000,-0.034000)" d="M65 700H513L633 580V120L513 0H65ZM446 116 497 167V533L446 584H201V116Z" fill="#F5F3F4"/><path transform="translate(231.74,88) scale(0.034000,-0.034000)" d="M50 104V394L153 498H439L542 394V104L439 0H153ZM375 110 410 145V353L375 388H217L182 353V145L217 110Z" fill="#F5F3F4"/><path transform="translate(252.04,88) scale(0.034000,-0.034000)" d="M50 102V396L151 498H425L528 394V302H396V351L361 386H217L182 351V147L217 112H361L396 147V196H528V104L425 0H151Z" fill="#F5F3F4"/><path transform="translate(271.18,88) scale(0.034000,-0.034000)" d="M55 105V498H187V146L221 112H301L399 210V498H531V0H409V85L323 0H160Z" fill="#F5F3F4"/><path transform="translate(291.45,88) scale(0.034000,-0.034000)" d="M60 498H182V416L263 498H389L457 429L525 498H699L806 390V0H674V351L640 386H556L503 333V0H375V353L343 386H283L192 294V0H60Z" fill="#F5F3F4"/><path transform="translate(320.89,88) scale(0.034000,-0.034000)" d="M50 102V394L153 498H434L538 394V205H182V141L214 108H377L407 139V165H537V100L438 0H151ZM406 297V355L372 390H216L182 355V297Z" fill="#F5F3F4"/><path transform="translate(340.88,88) scale(0.034000,-0.034000)" d="M60 498H182V415L265 498H426L537 387V0H405V351L371 386H287L192 290V0H60Z" fill="#F5F3F4"/><path transform="translate(361.18,88) scale(0.034000,-0.034000)" d="M105 102V387H15V498H107V660H237V498H389V386H237V145L271 112H389V0H208Z" fill="#F5F3F4"/><path transform="translate(375.43,88) scale(0.034000,-0.034000)" d="M45 92V206L137 298H390V361L359 392H209L179 361V333H49V390L156 498H413L520 390V0H401V71L327 0H137ZM318 102 390 171V204H202L175 177V127L200 102Z" fill="#F5F3F4"/><path transform="translate(395.15,88) scale(0.034000,-0.034000)" d="M105 102V387H15V498H107V660H237V498H389V386H237V145L271 112H389V0H208Z" fill="#F5F3F4"/><path transform="translate(409.39,88) scale(0.034000,-0.034000)" d="M55 602V666L101 712H171L217 666V602L171 556H101ZM70 498H202V0H70Z" fill="#F5F3F4"/><path transform="translate(418.81,88) scale(0.034000,-0.034000)" d="M50 104V394L153 498H439L542 394V104L439 0H153ZM375 110 410 145V353L375 388H217L182 353V145L217 110Z" fill="#F5F3F4"/><path transform="translate(439.11,88) scale(0.034000,-0.034000)" d="M60 498H182V415L265 498H426L537 387V0H405V351L371 386H287L192 290V0H60Z" fill="#F5F3F4"/>
<rect x="0" y="116" width="900" height="2" fill="url(#fade)">
  <animate attributeName="opacity" values="0.4;1;0.4" dur="3s" repeatCount="indefinite"/>
</rect>
</svg>